PathFileType	4	(X/Y/Z)	/Users/itak/Documents/Research/Walk-IL/dataset/trc/00326_00011.trc
DataRate	CameraRate	NumFrames	NumMarkers	Units	OrigDataRate	OrigDataStartFrame	OrigNumFrames
100.000000	100.000000	4	55	mm	100.000000	0	494
Frame#	Time	RPSI			LPSI			L3			STRN			T10			C7			CLAV			RBAK			LBAK			LSHO			LUPA			LAEL			LAOL			LWTS			LWPS			LFRA			LHPS			LHTS			RSHO			RUPA			RAEL			RAOL			RWTS			RWPS			RFRA			RIFD			RHTS			RHPS			RBHD			LFHD			RFHD			LBHD			LHIP			RHIP			RASI			LASI			LKNE			LTHI			LANK			LTIP			LTOE			LMT1			LMT5			LHEE			RKNE			RTHI			RANK			RTIP			RTOE			RMT1			RMT5			RHEE			LIFD			*53			*54			
		X1	Y1	Z1	X2	Y2	Z2	X3	Y3	Z3	X4	Y4	Z4	X5	Y5	Z5	X6	Y6	Z6	X7	Y7	Z7	X8	Y8	Z8	X9	Y9	Z9	X10	Y10	Z10	X11	Y11	Z11	X12	Y12	Z12	X13	Y13	Z13	X14	Y14	Z14	X15	Y15	Z15	X16	Y16	Z16	X17	Y17	Z17	X18	Y18	Z18	X19	Y19	Z19	X20	Y20	Z20	X21	Y21	Z21	X22	Y22	Z22	X23	Y23	Z23	X24	Y24	Z24	X25	Y25	Z25	X26	Y26	Z26	X27	Y27	Z27	X28	Y28	Z28	X29	Y29	Z29	X30	Y30	Z30	X31	Y31	Z31	X32	Y32	Z32	X33	Y33	Z33	X34	Y34	Z34	X35	Y35	Z35	X36	Y36	Z36	X37	Y37	Z37	X38	Y38	Z38	X39	Y39	Z39	X40	Y40	Z40	X41	Y41	Z41	X42	Y42	Z42	X43	Y43	Z43	X44	Y44	Z44	X45	Y45	Z45	X46	Y46	Z46	X47	Y47	Z47	X48	Y48	Z48	X49	Y49	Z49	X50	Y50	Z50	X51	Y51	Z51	X52	Y52	Z52	X53	Y53	Z53	X54	Y54	Z54	X55	Y55	Z55	

1	0	-1470.412475585938	984.6282958984375	108.020149230957	-1481.247436523438	985.620849609375	-21.05869674682617	-1478.688232421875	1036.695678710938	46.54322052001953	-1264.374633789062	1230.959106445312	16.1811466217041	-1502.46044921875	1152.119262695312	34.41485977172852	-1472.988891601562	1402.191040039062	10.04316425323486	-1312.237915039062	1354.380737304688	11.70370197296143	-1508.769775390625	1262.096313476562	84.142578125	-1484.698120117188	1361.839965820312	-91.19915008544922	-1400.815551757812	1381.486938476562	-149.9940795898438	-1411.969360351562	1259.026977539062	-214.1797180175781	-1380.651733398438	1056.792724609375	-226.3517761230469	-1442.419799804688	1038.989501953125	-171.3031463623047	-1267.110595703125	822.2757568359375	-184.1811981201172	-1309.105834960938	808.3902587890625	-238.6179046630859	-1358.445434570312	953.7965698242188	-233.2679748535156	-1305.552612304688	738.2545776367188	-233.3118438720703	-1251.2646484375	745.1947631835938	-201.1868591308594	-1410.240844726562	1398.0771484375	172.4125518798828	-1414.365112304688	1334.214233398438	238.4095153808594	-1387.749145507812	1066.298828125	274.2723388671875	-1438.522094726562	1056.716186523438	194.456298828125	-1276.506591796875	841.8530883789062	212.6678619384766	-1302.044067382812	826.40869140625	282.7565002441406	-1358.370239257812	999.9124755859375	278.2931213378906	-1256.729736328125	669.3306884765625	224.0012969970703	-1244.076293945312	741.68017578125	224.5174713134766	-1286.66552734375	743.5078125	279.8705749511719	-1468.065063476562	1602.982055664062	60.22465133666992	-1270.979370117188	1638.630249023438	-3.064170837402344	-1310.515991210938	1638.176025390625	89.72225952148438	-1435.429931640625	1594.25341796875	-80.01590728759766	-1402.115478515625	925.2842407226562	-129.6166534423828	-1384.765014648438	929.3615112304688	210.4352569580078	-1281.259643554688	958.915771484375	158.3964233398438	-1279.762817382812	953.60107421875	-82.73985290527344	-1350.822265625	468.3300170898438	-120.2672424316406	-1355.140869140625	609.483642578125	-129.4417419433594	-1441.662353515625	49.40670394897461	-107.0350570678711	-1394.735595703125	252.3767700195312	-124.3420639038086	-1234.515625	46.9838981628418	-52.65843963623047	-1301.211181640625	35.09098052978516	-9.563194274902344	-1315.64453125	44.27954864501953	-122.8534164428711	-1474.35546875	41.78202056884766	-39.16428375244141	-1361.471923828125	463.733642578125	183.5001831054688	-1313.029541015625	719.927001953125	203.4218292236328	-1425.9033203125	53.70647048950195	155.9799041748047	-1357.61279296875	344.7447814941406	169.3217010498047	-1237.032592773438	49.02031707763672	89.42436218261719	-1295.17041015625	42.76642227172852	53.07720565795898	-1322.990478515625	41.64476776123047	167.3012237548828	-1480.784057617188	53.01013565063477	113.4280700683594	-1253.196899414062	660.8785400390625	-181.2109985351562	nan	nan	nan	nan	nan	nan	
2	0.01	-1470.60498046875	984.5332641601562	107.9881973266602	-1481.393432617188	985.4696044921875	-21.0885066986084	-1478.947387695312	1036.65380859375	46.50852584838867	-1264.5146484375	1230.948608398438	16.19707107543945	-1502.587768554688	1152.10546875	34.44992828369141	-1473.128173828125	1402.172729492188	10.12309074401855	-1312.445678710938	1354.384765625	11.76074504852295	-1508.94091796875	1262.121948242188	84.22782135009766	-1484.8017578125	1361.776977539062	-91.16204833984375	-1400.958984375	1381.467651367188	-149.9725494384766	-1412.086303710938	1258.978881835938	-214.1290893554688	-1380.700073242188	1056.729248046875	-226.1181182861328	-1442.513305664062	1038.962524414062	-171.1099090576172	-1267.000732421875	822.3902587890625	-183.6140594482422	-1308.887451171875	808.3580932617188	-238.0357666015625	-1358.352783203125	953.741455078125	-232.8839111328125	-1305.29833984375	738.2311401367188	-232.6516571044922	-1250.811279296875	745.3833618164062	-200.5803833007812	-1410.282958984375	1398.064697265625	172.4365997314453	-1414.441528320312	1334.189208984375	238.4557037353516	-1387.900512695312	1066.260131835938	274.2008056640625	-1438.791259765625	1056.734497070312	194.4613037109375	-1276.877563476562	841.6962890625	212.3359985351562	-1302.340087890625	826.2827758789062	282.4266052246094	-1358.522216796875	999.8231811523438	278.1300354003906	-1257.197509765625	669.2000732421875	223.3108367919922	-1244.575317382812	741.4981689453125	223.9794921875	-1287.059936523438	743.3316650390625	279.4245300292969	-1468.039916992188	1602.991333007812	60.48596954345703	-1271.1416015625	1638.651611328125	-3.198482751846313	-1310.471069335938	1638.1728515625	89.60685729980469	-1435.756958007812	1594.27001953125	-79.88307952880859	-1402.153930664062	925.212158203125	-129.6223907470703	-1385.04443359375	929.3372802734375	210.3758087158203	-1281.42724609375	959.0053100585938	158.4762420654297	-1279.582275390625	953.8038330078125	-82.71672821044922	-1350.444458007812	468.2917785644531	-120.1687393188477	-1354.960571289062	609.4663696289062	-129.3998565673828	-1441.662475585938	49.42497253417969	-107.016716003418	-1394.45751953125	252.3343048095703	-124.2227096557617	-1234.507202148438	46.97488784790039	-52.64850997924805	-1301.2119140625	35.06459045410156	-9.5478515625	-1315.608520507812	44.26719284057617	-122.8224334716797	-1474.349365234375	41.77207183837891	-39.15190505981445	-1361.51123046875	463.7259521484375	183.5314483642578	-1312.1611328125	718.9638061523438	202.09521484375	-1425.904907226562	53.70941925048828	155.9719543457031	-1357.630859375	344.7430725097656	169.3493347167969	-1237.032470703125	49.01993179321289	89.43418884277344	-1295.166748046875	42.76683044433594	53.08214950561523	-1322.97509765625	41.6544075012207	167.2949981689453	-1480.77294921875	53.00816345214844	113.4136428833008	-1252.285400390625	661.45849609375	-180.8178863525391	nan	nan	nan	nan	nan	nan	
3	0.02	-1470.856079101562	984.402587890625	107.9306030273438	-1481.567993164062	985.2686157226562	-21.13488006591797	-1479.270874023438	1036.585205078125	46.46034240722656	-1264.701049804688	1230.931762695312	16.22164535522461	-1502.768798828125	1152.0888671875	34.49203491210938	-1473.309936523438	1402.142700195312	10.218337059021	-1312.710205078125	1354.383544921875	11.83040237426758	-1509.163208007812	1262.155517578125	84.33510589599609	-1484.943481445312	1361.6904296875	-91.11481475830078	-1401.147583007812	1381.4365234375	-149.94580078125	-1412.243530273438	1258.90771484375	-214.0632476806641	-1380.771850585938	1056.63671875	-225.8017425537109	-1442.643432617188	1038.92041015625	-170.8463287353516	-1266.866333007812	822.5358276367188	-182.8459777832031	-1308.620849609375	808.3065795898438	-237.2496032714844	-1358.251220703125	953.658203125	-232.3701934814453	-1304.9736328125	738.1900634765625	-231.7535705566406	-1250.194091796875	745.6533203125	-199.7674865722656	-1410.347412109375	1398.0458984375	172.4683074951172	-1414.549438476562	1334.154418945312	238.5115509033203	-1388.104125976562	1066.203125	274.0981750488281	-1439.1396484375	1056.751220703125	194.4570159912109	-1277.357055664062	841.5006713867188	211.9226837158203	-1302.750854492188	826.1089477539062	282.0144958496094	-1358.736083984375	999.7084350585938	277.9219055175781	-1257.7978515625	669.0319213867188	222.4411315917969	-1245.214111328125	741.2623291015625	223.3096618652344	-1287.581787109375	743.09521484375	278.8522338867188	-1468.003051757812	1602.99951171875	60.84035873413086	-1271.35693359375	1638.66455078125	-3.390402317047119	-1310.4033203125	1638.16064453125	89.45092010498047	-1436.200317382812	1594.291381835938	-79.69768524169922	-1402.191284179688	925.115478515625	-129.6366119384766	-1385.420776367188	929.3098754882812	210.3126678466797	-1281.667114257812	959.1171264648438	158.5935974121094	-1279.353515625	954.0405883789062	-82.66783905029297	-1349.972778320312	468.2463073730469	-120.0459136962891	-1354.708374023438	609.4395751953125	-129.3350524902344	-1441.66259765625	49.44683074951172	-106.9946975708008	-1394.107666015625	252.2809600830078	-124.0744476318359	-1234.497436523438	46.96369171142578	-52.63614654541016	-1301.213500976562	35.03124618530273	-9.528752326965332	-1315.56982421875	44.25575256347656	-122.7868194580078	-1474.34130859375	41.75940322875977	-39.13636016845703	-1361.5615234375	463.7163696289062	183.5715942382812	-1311.024047851562	717.7120361328125	200.3594665527344	-1425.90673828125	53.71277236938477	155.9623870849609	-1357.6552734375	344.7396240234375	169.3870849609375	-1237.03076171875	49.02009963989258	89.44776153564453	-1295.162231445312	42.76906585693359	53.08992004394531	-1322.956298828125	41.66523742675781	167.2900543212891	-1480.758056640625	53.00553131103516	113.3944549560547	-1251.168334960938	662.1838989257812	-180.2432556152344	nan	nan	nan	nan	nan	nan	
4	0.03	-1471.158081054688	984.2374877929688	107.8413925170898	-1481.756713867188	985.0228271484375	-21.20107841491699	-1479.640869140625	1036.48486328125	46.39799499511719	-1264.9296875	1230.907592773438	16.25622367858887	-1503.006591796875	1152.070068359375	34.53763961791992	-1473.529541015625	1402.098510742188	10.32119274139404	-1313.020385742188	1354.373657226562	11.90887928009033	-1509.429077148438	1262.19580078125	84.45816802978516	-1485.122436523438	1361.581298828125	-91.05906677246094	-1401.376586914062	1381.390991210938	-149.9154968261719	-1412.439331054688	1258.81103515625	-213.9842071533203	-1380.869140625	1056.512817382812	-225.4051666259766	-1442.810913085938	1038.860717773438	-170.5135650634766	-1266.717651367188	822.7056274414062	-181.8836212158203	-1308.323608398438	808.2317504882812	-236.2672882080078	-1358.153686523438	953.54296875	-231.7339172363281	-1304.593383789062	738.1267700195312	-230.6238555908203	-1249.422485351562	746.0068969726562	-198.7581939697266	-1410.438720703125	1398.02001953125	172.5070495605469	-1414.690551757812	1334.110107421875	238.5728454589844	-1388.357421875	1066.126708984375	273.9633178710938	-1439.5556640625	1056.76220703125	194.4369201660156	-1277.926025390625	841.2776489257812	211.4548797607422	-1303.2763671875	825.8881225585938	281.5450134277344	-1359.01416015625	999.5732421875	277.6784973144531	-1258.507934570312	668.8330078125	221.4398651123047	-1245.96484375	740.9824829101562	222.5501098632812	-1288.218872070312	742.80322265625	278.1788635253906	-1467.954345703125	1603.004760742188	61.28393173217773	-1271.620971679688	1638.661010742188	-3.643723011016846	-1310.310791015625	1638.134887695312	89.25656127929688	-1436.755249023438	1594.317138671875	-79.45871734619141	-1402.21875	924.9962158203125	-129.66259765625	-1385.887451171875	929.2816772460938	210.2555389404297	-1281.982299804688	959.24462890625	158.7517395019531	-1279.085693359375	954.291015625	-82.58430480957031	-1349.431640625	468.1969604492188	-119.9045639038086	-1354.382080078125	609.4016723632812	-129.2429656982422	-1441.66259765625	49.47061920166016	-106.970588684082	-1393.704711914062	252.2198181152344	-123.9060974121094	-1234.487182617188	46.95102310180664	-52.62203216552734	-1301.216186523438	34.99266052246094	-9.506936073303223	-1315.534423828125	44.24828720092773	-122.7504196166992	-1474.331298828125	41.74451065063477	-39.11846923828125	-1361.620849609375	463.7054748535156	183.6189422607422	-1309.662231445312	716.222412109375	198.2796783447266	-1425.908813476562	53.71619033813477	155.9518737792969	-1357.685546875	344.7339172363281	169.4344635009766	-1237.02685546875	49.02115631103516	89.46498870849609	-1295.157104492188	42.77386856079102	53.10102081298828	-1322.93505859375	41.67616271972656	167.2879486083984	-1480.739868164062	53.00234222412109	113.3709106445312	-1249.915161132812	663.0175170898438	-179.4714965820312	nan	nan	nan	nan	nan	nan	
